

<svg xmlns="http://www.w3.org/2000/svg" xmlns:xlink="http://www.w3.org/1999/xlink" viewBox="0 0 399 293">

<g transform="translate(0.000000,613.000000) scale(0.100000,-0.100000)"
>
<path d="M0 3065 l0 -3065 2370 0 2370 0 0 3065 0 3065 -2370 0 -2370 0 0
-3065z m2653 2694 c61 -8 84 -15 75 -21 -9 -7 -3 -8 16 -3 16 3 53 -1 85 -11
91 -26 88 -25 66 -35 -13 -5 -4 -6 24 -2 35 5 42 3 36 -7 -5 -8 -4 -11 2 -7
12 7 90 -21 176 -64 94 -47 217 -122 217 -131 0 -5 5 -6 12 -2 8 5 9 2 5 -9
-3 -9 -1 -19 5 -23 7 -4 8 -3 4 4 -13 21 11 13 43 -13 19 -17 28 -32 25 -43
-4 -13 -3 -14 4 -4 7 10 16 8 40 -13 17 -15 31 -32 29 -38 -1 -7 4 -11 11 -9
7 1 34 -17 59 -40 50 -47 204 -237 225 -278 7 -14 19 -31 26 -38 6 -8 9 -24 6
-37 -3 -13 -1 -32 5 -42 9 -14 9 -12 5 15 -4 17 -4 32 -1 32 6 0 49 -71 51
-85 1 -5 15 -35 30 -65 28 -55 83 -207 89 -245 1 -11 6 -25 10 -31 8 -14 36
-173 49 -289 9 -83 4 -362 -7 -373 -8 -9 -727 716 -720 727 3 7 0 8 -9 5 -9
-3 -16 -2 -16 4 0 6 5 12 11 14 5 2 -2 15 -17 28 l-27 25 18 -27 c26 -41 5
-34 -40 13 -26 27 -35 43 -27 46 6 3 9 9 6 15 -4 6 -9 5 -14 -3 -13 -20 -42 9
-35 35 5 17 4 18 -4 6 -9 -13 -12 -12 -25 5 -11 15 -11 22 -3 28 8 6 5 7 -7 3
-14 -5 -58 33 -193 168 -98 98 -172 180 -168 186 3 6 2 9 -3 8 -5 -2 -28 12
-51 30 -33 27 -41 38 -36 55 5 16 4 18 -3 8 -6 -7 -15 -10 -22 -6 -35 21 -41
-107 -10 -217 11 -40 20 -91 20 -113 -1 -51 -31 -119 -64 -140 -14 -10 -23
-22 -19 -28 3 -6 1 -7 -5 -3 -6 4 -21 2 -33 -5 -20 -10 -21 -9 -15 12 19 63
17 108 -9 209 -24 96 -27 138 -9 183 4 11 -86 117 -98 117 -3 0 -10 -19 -16
-43 -13 -49 -3 -134 23 -215 36 -108 -2 -206 -98 -258 l-29 -16 8 34 c12 55 6
126 -17 216 -19 70 -21 92 -13 133 l10 49 -44 45 c-24 25 -49 44 -56 42 -6 -2
-15 -25 -20 -51 -8 -40 -5 -67 18 -161 38 -155 25 -210 -65 -275 -51 -37 -61
-38 -49 -4 13 33 13 37 -3 23 -20 -19 -18 -51 4 -56 10 -3 19 -9 19 -14 0 -5
19 -27 41 -49 23 -22 39 -44 35 -48 -4 -3 -15 4 -25 17 -16 20 -19 21 -24 7
-4 -10 -3 -15 3 -11 6 3 10 2 10 -4 0 -5 -19 -12 -42 -14 -24 -2 210 -4 518
-5 588 -2 600 -3 660 -48 17 -13 35 -20 39 -16 3 4 6 3 4 -3 -1 -5 10 -35 24
-65 26 -53 27 -61 27 -238 0 -189 -7 -230 -47 -274 -14 -15 -14 -20 -2 -35 13
-16 12 -17 -4 -4 -15 12 -20 11 -40 -7 -30 -28 -108 -52 -167 -52 l-50 0 0 53
c0 63 15 81 75 92 86 14 95 36 95 234 l0 160 -30 31 c-28 29 -33 30 -115 30
l-85 0 0 -369 c0 -301 -3 -376 -15 -411 -8 -23 -12 -47 -8 -53 3 -5 1 -7 -4
-4 -11 7 -49 -42 -45 -56 1 -5 -1 -6 -6 -3 -13 8 -53 -24 -46 -36 4 -6 2 -8
-3 -5 -6 4 -31 0 -55 -9 -67 -22 -892 -17 -928 7 -14 8 -43 25 -65 38 -35 20
-37 20 -17 2 l23 -20 -21 -11 c-12 -6 -19 -14 -16 -17 3 -3 12 0 21 7 8 7 15
8 15 3 0 -18 63 -74 70 -63 5 8 21 -1 46 -24 l39 -36 758 0 757 0 -2 -39 c-2
-21 -6 -37 -10 -34 -5 2 -8 -2 -8 -10 0 -23 -66 -75 -102 -82 -18 -3 -486 -4
-1039 -3 l-1005 3 -37 25 c-20 14 -41 34 -47 45 -9 18 -9 17 -4 -5 4 -14 10
-27 14 -30 4 -3 6 -13 4 -22 -2 -14 2 -16 14 -9 11 6 21 4 30 -5 13 -14 11
-16 -20 -18 -29 -2 -25 -21 4 -21 15 -1 25 2 22 6 -2 4 2 9 8 12 7 2 159 -142
337 -320 258 -258 322 -327 310 -335 -12 -8 -11 -9 2 -5 10 3 36 -13 68 -42
56 -51 59 -58 34 -64 -10 -2 -5 -3 10 -1 17 2 35 -3 44 -12 15 -14 12 -15 -33
-9 -64 9 -211 44 -232 55 -10 4 -53 20 -97 35 -136 46 -353 164 -340 185 3 5
0 12 -6 16 -8 4 -9 3 -5 -4 11 -18 1 -14 -46 17 -76 51 -209 172 -202 183 4 6
2 8 -3 5 -6 -4 -30 16 -54 44 -24 28 -49 56 -54 63 -24 26 -103 133 -114 154
-7 12 -9 27 -6 32 3 5 3 21 -1 35 -5 20 -9 24 -18 14 -8 -8 -8 -13 2 -16 6 -3
12 -11 12 -19 0 -27 -17 -14 -36 29 -10 23 -25 48 -32 56 -7 8 -11 22 -9 33 3
10 2 16 -3 13 -4 -3 -18 19 -30 48 -12 28 -30 70 -40 92 -39 86 -82 263 -101
419 -17 139 -1 495 21 481 5 -3 6 4 3 15 -5 20 8 92 34 175 52 167 164 402
185 389 8 -5 9 -1 5 10 -7 19 21 58 36 49 6 -3 7 -1 3 5 -7 12 28 72 67 113
13 14 30 35 36 48 7 12 15 20 18 17 3 -3 0 -12 -7 -20 -10 -13 -9 -19 5 -32
15 -15 16 -15 9 10 -4 17 -2 26 6 26 6 0 9 8 6 18 -4 13 17 40 77 98 109 108
302 253 274 207 -3 -5 13 -9 34 -10 22 -2 39 2 39 8 0 6 -8 9 -17 8 -36 -3
-57 1 -47 10 25 24 104 60 121 55 12 -4 14 -3 5 3 -16 12 122 78 139 67 7 -4
9 -3 6 3 -15 24 266 102 443 123 95 11 338 5 453 -11z m1374 -2081 c-3 -8 -6
-5 -6 6 -1 11 2 17 5 13 3 -3 4 -12 1 -19z m-2132 -188 c16 -16 25 -33 21 -37
-3 -4 -18 5 -32 20 -14 15 -21 27 -17 27 4 0 1 5 -7 10 -8 5 -10 10 -4 10 5 0
23 -13 39 -30z m1968 -255 c-3 -9 -8 -14 -10 -11 -3 3 -2 9 2 15 9 16 15 13 8
-4z m-30 -42 c-7 -2 -13 -12 -13 -20 0 -9 -3 -14 -6 -10 -10 10 4 37 18 36 10
0 10 -2 1 -6z m-173 -227 c0 -3 -4 -8 -10 -11 -5 -3 -10 -1 -10 4 0 6 5 11 10
11 6 0 10 -2 10 -4z m-350 -305 c0 -5 -7 -12 -16 -15 -14 -5 -15 -4 -4 9 14
17 20 19 20 6z m-130 -75 c0 -3 -4 -8 -10 -11 -5 -3 -10 -1 -10 4 0 6 5 11 10
11 6 0 10 -2 10 -4z m-1584 -438 c13 -6 21 -15 18 -19 -3 -5 2 -6 10 -3 22 8
20 -6 -5 -32 -19 -20 -23 -21 -47 -8 -59 31 -140 10 -171 -42 -40 -67 -17
-145 52 -177 43 -21 45 -21 103 -1 47 16 48 16 65 -7 13 -17 15 -27 7 -36 -6
-7 -14 -11 -18 -8 -5 3 -10 0 -12 -6 -2 -6 -37 -13 -78 -16 -70 -4 -78 -2
-120 26 -104 69 -114 225 -19 305 17 14 43 29 57 32 15 3 32 7 37 9 16 6 95
-5 121 -17z m353 -9 c41 -23 78 -71 73 -95 -2 -9 1 -13 7 -9 14 8 15 -93 2
-128 -11 -27 -54 -77 -67 -77 -4 0 -3 5 4 12 7 7 12 16 12 20 0 10 -51 -1 -64
-13 -5 -4 2 -5 14 -2 19 5 22 3 17 -10 -4 -10 -1 -17 6 -17 7 -1 -1 -8 -17
-17 -44 -23 -153 -13 -195 18 -55 40 -76 85 -76 159 0 56 4 71 30 107 17 24
36 41 43 38 7 -3 10 0 7 5 -3 6 -5 10 -3 10 2 0 21 7 43 15 49 19 114 12 164
-16z m421 -4 c0 -24 -4 -34 -11 -29 -6 3 -9 15 -6 25 6 23 -4 31 -23 18 -8 -5
-10 -9 -4 -9 6 0 11 -7 11 -15 0 -20 -31 -27 -96 -21 -62 5 -86 -1 -72 -18 13
-15 10 -56 -4 -56 -5 0 -3 -5 5 -10 8 -5 45 -10 83 -10 l67 0 0 -30 0 -30 -70
0 c-49 0 -70 -4 -71 -12 0 -7 0 -43 -1 -80 l0 -68 -34 0 -34 0 0 189 0 189
130 1 130 2 0 -36z m330 2 l0 -33 -97 1 -98 0 0 -45 0 -45 73 -3 72 -3 0 -29
0 -30 -74 0 -74 0 4 -80 3 -80 -34 0 -35 0 0 190 0 190 130 0 130 0 0 -33z
m340 -3 l0 -36 -102 3 -103 4 0 -45 0 -45 78 -3 77 -3 0 -29 0 -29 -77 -3 -78
-3 -3 -47 -3 -48 105 0 106 0 0 -35 0 -35 -79 0 c-43 0 -106 3 -140 6 l-62 7
1 183 c1 100 4 185 7 188 4 3 66 6 140 6 l133 0 0 -36z m360 7 c0 -34 -23 -41
-131 -41 l-69 0 0 -45 0 -45 78 0 79 0 -5 -30 -4 -30 -74 0 -74 0 0 -50 0 -50
100 0 100 0 0 -29 c0 -35 -22 -41 -146 -41 l-83 0 -6 34 c-4 19 -5 104 -3 189
2 88 -1 146 -5 134 -5 -12 -7 -97 -5 -190 2 -126 0 -167 -9 -167 -9 0 -13 51
-15 195 l-3 195 138 0 137 0 0 -29z m-1156 -470 c3 -4 -6 -6 -19 -3 -57 11
-115 -41 -115 -103 0 -27 18 -48 100 -115 24 -19 49 -49 56 -67 14 -32 9 -93
-7 -93 -5 0 -6 8 -3 18 5 14 4 14 -4 2 -6 -8 -8 -18 -6 -22 7 -10 -11 -28 -57
-56 -90 -55 -218 -2 -219 90 0 50 18 86 51 104 41 21 49 17 13 -5 -66 -40 -66
-142 0 -182 41 -25 92 -24 141 4 52 30 67 59 61 122 -6 52 -3 49 -119 149 -21
18 -27 31 -23 50 3 14 0 26 -5 26 -17 0 21 56 50 73 28 17 96 23 105 8z m34
-36 c-3 -3 -9 2 -12 12 -6 14 -5 15 5 6 7 -7 10 -15 7 -18z m-73 -52 c-10 -9
-13 -23 -9 -35 4 -14 2 -18 -5 -14 -15 10 -14 63 2 69 21 8 28 -4 12 -20z
m219 -10 c-4 -21 -19 -75 -34 -120 -15 -46 -23 -83 -18 -83 5 0 6 -5 3 -10 -4
-6 -11 -7 -17 -4 -7 4 -8 2 -4 -4 4 -7 -1 -28 -10 -49 -27 -57 -27 -26 1 67
14 46 25 92 25 102 0 11 3 17 8 15 4 -3 8 9 9 25 3 43 23 98 34 98 6 0 7 -15
3 -37z m-64 23 c0 -3 -4 -8 -10 -11 -5 -3 -10 -1 -10 4 0 6 5 11 10 11 6 0 10
-2 10 -4z m-90 -40 c0 -2 -8 -10 -17 -17 -16 -13 -17 -12 -4 4 13 16 21 21 21
13z m189 -167 c-6 -24 -8 -54 -6 -67 3 -14 0 -21 -7 -19 -15 5 -13 73 4 157 0
3 5 -2 10 -11 5 -9 5 -32 -1 -60z m285 14 c-1 -21 -12 -63 -23 -93 -11 -30
-29 -88 -41 -127 -12 -40 -26 -73 -31 -73 -13 0 -12 10 11 76 19 52 47 157 64
237 9 40 24 25 20 -20z m-144 26 c0 -5 -5 -7 -11 -4 -24 15 -73 -78 -58 -110
10 -20 10 -20 -6 0 -8 11 -13 26 -10 33 3 8 5 19 5 26 0 22 40 66 61 66 10 0
19 -5 19 -11z m238 -1 c21 -21 13 -62 -19 -98 l-31 -35 21 36 c24 41 27 79 9
97 -7 7 -8 12 -2 12 6 0 15 -5 22 -12z m-676 -15 c32 -29 13 -114 -26 -113 -6
1 -2 8 9 18 25 21 26 64 3 92 -21 24 -12 27 14 3z m469 -30 c12 -16 12 -17 -1
-7 -8 6 -22 14 -30 17 -13 5 -12 6 1 6 9 1 23 -7 30 -16z m-891 -3 c0 -6 -11
-10 -25 -10 -14 0 -28 0 -32 -1 -4 0 -9 3 -10 8 -2 4 13 9 32 10 19 2 35 -2
35 -7z m47 4 c-3 -3 -12 -4 -19 -1 -8 3 -5 6 6 6 11 1 17 -2 13 -5z m784 -21
c-8 -15 -10 -15 -11 -2 0 17 10 32 18 25 2 -3 -1 -13 -7 -23z m514 18 c-14
-14 -68 -18 -72 -5 -2 6 15 11 39 13 28 1 39 -1 33 -8z m-975 -30 c0 -5 -9
-11 -19 -14 -14 -3 -18 -1 -14 9 6 15 33 19 33 5z m501 -34 c-12 -12 -21 -16
-21 -9 0 7 4 12 9 12 5 0 13 10 17 23 5 14 9 17 12 8 2 -7 -5 -23 -17 -34z"/>
<path d="M2348 5753 c17 -2 47 -2 65 0 17 2 3 4 -33 4 -36 0 -50 -2 -32 -4z"/>
<path d="M2493 5753 c9 -2 23 -2 30 0 6 3 -1 5 -18 5 -16 0 -22 -2 -12 -5z"/>
<path d="M2568 5743 c6 -2 18 -2 25 0 6 3 1 5 -13 5 -14 0 -19 -2 -12 -5z"/>
<path d="M2458 5733 c7 -3 16 -2 19 1 4 3 -2 6 -13 5 -11 0 -14 -3 -6 -6z"/>
<path d="M1938 5693 c7 -3 16 -2 19 1 4 3 -2 6 -13 5 -11 0 -14 -3 -6 -6z"/>
<path d="M1880 5680 c0 -5 6 -10 13 -11 6 0 3 -4 -8 -9 -14 -7 -8 -8 20 -3 48
7 58 13 22 13 -15 0 -27 5 -27 10 0 6 -4 10 -10 10 -5 0 -10 -4 -10 -10z"/>
<path d="M2860 5660 c34 -11 60 -11 35 0 -11 5 -29 8 -40 8 -16 0 -15 -2 5 -8z"/>
<path d="M2968 5653 c7 -3 16 -2 19 1 4 3 -2 6 -13 5 -11 0 -14 -3 -6 -6z"/>
<path d="M3058 5613 c7 -3 16 -2 19 1 4 3 -2 6 -13 5 -11 0 -14 -3 -6 -6z"/>
<path d="M1665 5600 c-3 -5 1 -10 10 -10 9 0 13 5 10 10 -3 6 -8 10 -10 10 -2
0 -7 -4 -10 -10z"/>
<path d="M3087 5596 c-17 -13 -16 -14 3 -19 11 -3 29 -3 40 0 19 5 20 6 3 19
-10 7 -20 13 -23 13 -3 0 -13 -6 -23 -13z"/>
<path d="M1565 5539 c-9 -14 -2 -20 14 -10 8 6 9 11 3 15 -6 3 -14 1 -17 -5z"/>
<path d="M3200 5540 c0 -5 5 -10 11 -10 5 0 7 5 4 10 -3 6 -8 10 -11 10 -2 0
-4 -4 -4 -10z"/>
<path d="M1408 5453 c7 -3 16 -2 19 1 4 3 -2 6 -13 5 -11 0 -14 -3 -6 -6z"/>
<path d="M3290 5430 c0 -5 5 -10 10 -10 6 0 10 5 10 10 0 6 -4 10 -10 10 -5 0
-10 -4 -10 -10z"/>
<path d="M3385 5420 c-3 -6 1 -7 9 -4 18 7 21 14 7 14 -6 0 -13 -4 -16 -10z"/>
<path d="M1335 5380 c3 -5 11 -10 16 -10 6 0 7 5 4 10 -3 6 -11 10 -16 10 -6
0 -7 -4 -4 -10z"/>
<path d="M1276 5345 c-3 -9 -6 -24 -5 -33 0 -9 5 -4 10 12 9 32 6 48 -5 21z"/>
<path d="M1310 5340 c-8 -5 -10 -10 -5 -10 6 0 17 5 25 10 8 5 11 10 5 10 -5
0 -17 -5 -25 -10z"/>
<path d="M3475 5340 c-3 -5 -1 -10 4 -10 6 0 11 5 11 10 0 6 -2 10 -4 10 -3 0
-8 -4 -11 -10z"/>
<path d="M1230 5295 c-8 -9 -8 -15 -2 -15 12 0 26 19 19 26 -2 2 -10 -2 -17
-11z"/>
<path d="M3524 5276 c1 -15 7 -22 23 -21 12 0 25 4 30 9 4 5 3 6 -3 3 -6 -3
-20 2 -31 13 -21 18 -21 18 -19 -4z"/>
<path d="M1170 5252 c-16 -17 -20 -27 -12 -30 7 -2 12 -8 12 -14 0 -6 -7 -8
-14 -5 -10 4 -13 1 -10 -8 8 -19 35 -28 47 -16 7 7 5 17 -8 31 -17 19 -17 21
0 40 27 30 14 31 -15 2z m20 -62 c0 -5 -4 -10 -10 -10 -5 0 -10 5 -10 10 0 6
5 10 10 10 6 0 10 -4 10 -10z"/>
<path d="M2090 5240 c-8 -5 -10 -10 -5 -10 6 0 17 5 25 10 8 5 11 10 5 10 -5
0 -17 -5 -25 -10z"/>
<path d="M2275 5214 c19 -20 33 -39 30 -44 -3 -5 3 -7 12 -6 10 2 18 8 18 15
0 17 36 42 49 34 6 -4 4 1 -4 12 -14 17 -13 17 10 10 14 -4 22 -4 18 0 -12 13
-62 15 -75 3 -9 -7 -10 -14 -3 -23 7 -9 6 -16 -5 -25 -12 -10 -15 -10 -15 3 0
9 -12 25 -26 36 -42 33 -47 24 -9 -15z m89 17 c3 -5 -1 -11 -9 -15 -15 -6 -29
7 -18 18 9 9 21 8 27 -3z"/>
<path d="M2630 5241 c-8 -6 -17 -8 -21 -5 -4 2 -9 -6 -12 -17 -4 -13 -11 -19
-19 -16 -9 3 -14 -2 -14 -14 0 -16 6 -14 36 14 19 17 39 35 45 39 13 11 3 10
-15 -1z"/>
<path d="M2123 5233 c-15 -5 -17 -23 -4 -23 5 0 11 7 15 15 3 8 4 15 3 14 -1
0 -8 -3 -14 -6z"/>
<path d="M3639 5196 c14 -14 27 -26 29 -26 10 0 -26 44 -39 48 -8 3 -3 -7 10
-22z"/>
<path d="M2101 5183 c-7 -8 -11 -16 -8 -19 2 -2 10 2 17 11 17 20 9 27 -9 8z"/>
<path d="M3685 5129 c-4 -5 -4 -13 -1 -16 3 -4 6 0 6 8 0 9 8 5 21 -11 18 -22
19 -22 10 -3 -14 28 -28 36 -36 22z"/>
<path d="M2052 5110 c-7 -11 -8 -20 -3 -20 5 0 11 -6 14 -12 2 -7 3 -4 1 6 -2
11 2 26 8 33 6 7 6 13 2 13 -5 0 -15 -9 -22 -20z"/>
<path d="M1060 5116 c0 -2 7 -9 15 -16 13 -11 14 -10 9 4 -5 14 -24 23 -24 12z"/>
<path d="M1005 5050 c-4 -12 -2 -27 3 -32 8 -8 9 -4 6 13 -4 17 -3 20 4 11 7
-11 11 -10 16 4 3 9 4 19 1 22 -3 3 -5 -1 -5 -9 0 -12 -2 -12 -9 0 -7 11 -10
9 -16 -9z"/>
<path d="M2036 5061 c-4 -7 -5 -15 -2 -18 9 -9 19 4 14 18 -4 11 -6 11 -12 0z"/>
<path d="M3763 5023 c-1 -33 0 -35 8 -15 5 13 5 30 1 38 -5 9 -8 1 -9 -23z"/>
<path d="M2056 5019 c-6 -29 10 -77 21 -65 3 3 1 12 -6 19 -6 8 -8 27 -5 46 4
17 4 31 2 31 -3 0 -8 -14 -12 -31z"/>
<path d="M3790 4976 c0 -9 5 -16 10 -16 6 0 10 4 10 9 0 6 -4 13 -10 16 -5 3
-10 -1 -10 -9z"/>
<path d="M2990 4963 c0 -5 5 -15 10 -23 7 -12 9 -10 7 8 -1 19 -17 33 -17 15z"/>
<path d="M935 4932 c2 -2 -2 -17 -11 -33 -8 -16 -11 -29 -7 -29 5 0 15 15 24
34 14 27 14 33 3 33 -8 0 -12 -2 -9 -5z"/>
<path d="M2080 4903 c0 -5 5 -15 10 -23 8 -12 10 -11 10 8 0 12 -4 22 -10 22
-5 0 -10 -3 -10 -7z"/>
<path d="M3873 4868 c3 -9 1 -18 -4 -20 -5 -2 -3 -12 5 -23 14 -19 15 -18 11
14 -2 18 -7 36 -11 40 -4 3 -4 -2 -1 -11z"/>
<path d="M2095 4810 c3 -5 8 -10 11 -10 2 0 4 5 4 10 0 6 -5 10 -11 10 -5 0
-7 -4 -4 -10z"/>
<path d="M861 4800 c0 -8 4 -24 9 -35 5 -13 9 -14 9 -5 0 8 -4 24 -9 35 -5 13
-9 14 -9 5z"/>
<path d="M840 4745 c0 -8 5 -15 10 -15 6 0 10 7 10 15 0 8 -4 15 -10 15 -5 0
-10 -7 -10 -15z"/>
<path d="M3936 4747 c3 -10 9 -15 12 -12 3 3 0 11 -7 18 -10 9 -11 8 -5 -6z"/>
<path d="M3951 4674 c0 -11 3 -14 6 -6 3 7 2 16 -1 19 -3 4 -6 -2 -5 -13z"/>
<path d="M3330 4670 c0 -5 5 -10 10 -10 6 0 10 5 10 10 0 6 -4 10 -10 10 -5 0
-10 -4 -10 -10z"/>
<path d="M2085 4659 c-4 -6 -5 -11 -4 -12 2 -1 14 -7 25 -14 29 -16 37 -6 13
18 -22 22 -25 23 -34 8z"/>
<path d="M3961 4634 c0 -11 3 -14 6 -6 3 7 2 16 -1 19 -3 4 -6 -2 -5 -13z"/>
<path d="M3930 4626 c0 -9 5 -16 10 -16 6 0 10 4 10 9 0 6 -4 13 -10 16 -5 3
-10 -1 -10 -9z"/>
<path d="M1778 4602 c10 -3 8 -8 -5 -18 -16 -12 -13 -12 17 -2 50 16 54 23 12
24 -20 0 -31 -1 -24 -4z"/>
<path d="M3410 4600 c0 -5 5 -10 11 -10 5 0 7 5 4 10 -3 6 -8 10 -11 10 -2 0
-4 -4 -4 -10z"/>
<path d="M1878 4583 c12 -2 30 -2 40 0 9 3 -1 5 -23 4 -22 0 -30 -2 -17 -4z"/>
<path d="M1690 4560 c0 -5 5 -10 11 -10 5 0 7 5 4 10 -3 6 -8 10 -11 10 -2 0
-4 -4 -4 -10z"/>
<path d="M761 4553 c-2 -20 11 -43 20 -37 5 3 9 15 8 27 0 21 -1 21 -8 2 l-8
-20 -5 20 c-3 11 -6 15 -7 8z"/>
<path d="M1724 4549 c-3 -6 -2 -14 5 -18 7 -5 12 -131 14 -427 l2 -419 2 438
c1 247 -2 437 -7 437 -5 0 -12 -5 -16 -11z"/>
<path d="M3450 4506 c0 -9 5 -16 10 -16 6 0 10 4 10 9 0 6 -4 13 -10 16 -5 3
-10 -1 -10 -9z"/>
<path d="M3480 4470 c0 -5 5 -10 11 -10 5 0 7 5 4 10 -3 6 -8 10 -11 10 -2 0
-4 -4 -4 -10z"/>
<path d="M4011 4464 c0 -11 3 -14 6 -6 3 7 2 16 -1 19 -3 4 -6 -2 -5 -13z"/>
<path d="M3570 4441 c0 -5 5 -13 10 -16 6 -3 10 -2 10 4 0 5 -4 13 -10 16 -5
3 -10 2 -10 -4z"/>
<path d="M2760 4418 c-5 -342 1 -653 12 -660 17 -10 26 -10 33 1 7 13 8 659 0
671 -3 6 -15 10 -26 10 -13 0 -19 -7 -19 -22z"/>
<path d="M3530 4420 c0 -5 5 -10 11 -10 5 0 7 5 4 10 -3 6 -8 10 -11 10 -2 0
-4 -4 -4 -10z"/>
<path d="M4021 4414 c0 -11 3 -14 6 -6 3 7 2 16 -1 19 -3 4 -6 -2 -5 -13z"/>
<path d="M3560 4390 c0 -5 5 -10 11 -10 5 0 7 5 4 10 -3 6 -8 10 -11 10 -2 0
-4 -4 -4 -10z"/>
<path d="M4036 4373 c-6 -14 -5 -15 5 -6 7 7 10 15 7 18 -3 3 -9 -2 -12 -12z"/>
<path d="M3585 4360 c3 -5 8 -10 11 -10 2 0 4 5 4 10 0 6 -5 10 -11 10 -5 0
-7 -4 -4 -10z"/>
<path d="M3650 4360 c0 -5 5 -10 11 -10 5 0 7 5 4 10 -3 6 -8 10 -11 10 -2 0
-4 -4 -4 -10z"/>
<path d="M4012 4320 c0 -19 2 -27 5 -17 2 9 2 25 0 35 -3 9 -5 1 -5 -18z"/>
<path d="M4041 4304 c0 -11 3 -14 6 -6 3 7 2 16 -1 19 -3 4 -6 -2 -5 -13z"/>
<path d="M3670 4282 c0 -12 19 -26 26 -19 2 2 -2 10 -11 17 -9 8 -15 8 -15 2z"/>
<path d="M711 4224 c0 -11 3 -14 6 -6 3 7 2 16 -1 19 -3 4 -6 -2 -5 -13z"/>
<path d="M3730 4221 c0 -9 30 -24 36 -18 2 1 -6 8 -16 15 -11 7 -20 8 -20 3z"/>
<path d="M712 4104 c-1 -17 -4 -47 -7 -65 l-5 -34 11 34 c5 18 8 47 6 65 l-4
31 -1 -31z"/>
<path d="M3910 4039 c0 -5 5 -7 10 -4 6 3 10 8 10 11 0 2 -4 4 -10 4 -5 0 -10
-5 -10 -11z"/>
<path d="M778 3710 c-7 -24 -3 -38 8 -28 3 4 4 17 2 30 l-3 23 -7 -25z"/>
<path d="M1692 3705 c0 -16 2 -22 5 -12 2 9 2 23 0 30 -3 6 -5 -1 -5 -18z"/>
<path d="M1712 3710 c0 -14 2 -19 5 -12 2 6 2 18 0 25 -3 6 -5 1 -5 -13z"/>
<path d="M1756 3648 c3 -15 7 -39 8 -52 1 -18 4 -22 14 -14 14 12 16 32 2 23
-6 -3 -10 4 -10 17 0 13 -5 30 -10 38 -8 11 -9 8 -4 -12z"/>
<path d="M781 3614 c0 -11 3 -14 6 -6 3 7 2 16 -1 19 -3 4 -6 -2 -5 -13z"/>
<path d="M776 3567 c3 -10 9 -15 12 -12 3 3 0 11 -7 18 -10 9 -11 8 -5 -6z"/>
<path d="M1760 3550 c0 -5 5 -10 10 -10 6 0 10 5 10 10 0 6 -4 10 -10 10 -5 0
-10 -4 -10 -10z"/>
<path d="M840 3435 c0 -8 5 -15 10 -15 6 0 10 7 10 15 0 8 -4 15 -10 15 -5 0
-10 -7 -10 -15z"/>
<path d="M860 3405 c-7 -9 -11 -17 -9 -20 3 -2 10 5 17 15 14 24 10 26 -8 5z"/>
<path d="M1267 3396 c-6 -14 26 -16 326 -14 l332 3 -319 2 c-214 2 -322 7
-327 14 -4 7 -8 5 -12 -5z"/>
<path d="M1938 3383 c6 -2 18 -2 25 0 6 3 1 5 -13 5 -14 0 -19 -2 -12 -5z"/>
<path d="M1224 3332 c-6 -4 -13 -15 -17 -24 -5 -13 -1 -18 12 -18 11 0 22 -6
25 -12 3 -7 3 -3 1 9 -3 12 -1 24 5 28 6 3 8 11 5 16 -7 11 -16 11 -31 1z m9
-17 c-3 -9 -8 -14 -10 -11 -3 3 -2 9 2 15 9 16 15 13 8 -4z"/>
<path d="M910 3301 c0 -6 5 -13 10 -16 6 -3 10 1 10 9 0 9 -4 16 -10 16 -5 0
-10 -4 -10 -9z"/>
<path d="M1007 3153 c3 -7 9 -13 13 -13 4 0 10 6 13 13 3 7 -3 13 -13 13 -10
0 -16 -6 -13 -13z"/>
<path d="M1365 3131 c0 -28 4 -37 16 -37 10 0 15 6 12 13 -7 19 3 16 31 -8 18
-16 24 -30 22 -54 -2 -25 0 -32 10 -28 17 6 18 20 2 26 -10 4 -10 8 1 15 19
14 -45 75 -71 66 -10 -3 -18 -1 -18 5 0 6 5 11 10 11 14 0 12 17 -3 23 -9 3
-12 -7 -12 -32z"/>
<path d="M990 3147 c0 -4 7 -19 17 -33 12 -19 18 -22 24 -12 5 7 9 18 9 23 0
6 -4 4 -9 -4 -7 -10 -12 -8 -25 10 -9 13 -16 20 -16 16z"/>
<path d="M1040 3059 c0 -5 4 -9 9 -9 5 0 16 -3 25 -6 9 -3 16 -2 16 4 0 5 -11
12 -25 14 -14 3 -25 1 -25 -3z"/>
<path d="M1490 3031 c0 -5 7 -11 14 -14 10 -4 13 -1 9 9 -6 15 -23 19 -23 5z"/>
<path d="M1159 2977 c-15 -11 -15 -15 -2 -32 15 -19 15 -19 9 -1 -3 10 -1 25
5 32 14 17 9 17 -12 1z"/>
<path d="M1250 2921 c0 -5 5 -13 10 -16 6 -3 10 -2 10 4 0 5 -4 13 -10 16 -5
3 -10 2 -10 -4z"/>
<path d="M1210 2890 c0 -5 7 -10 16 -10 8 0 12 5 9 10 -3 6 -10 10 -16 10 -5
0 -9 -4 -9 -10z"/>
<path d="M1240 2855 c0 -8 4 -15 10 -15 5 0 7 7 4 15 -4 8 -8 15 -10 15 -2 0
-4 -7 -4 -15z"/>
<path d="M1308 2803 c7 -3 16 -2 19 1 4 3 -2 6 -13 5 -11 0 -14 -3 -6 -6z"/>
<path d="M1340 2760 c13 -10 27 -15 30 -11 3 4 12 11 20 15 8 3 3 4 -12 1 -15
-3 -30 -1 -33 5 -3 5 -12 10 -18 10 -7 0 -1 -9 13 -20z"/>
<path d="M1415 2720 c-3 -5 -2 -10 4 -10 5 0 13 5 16 10 3 6 2 10 -4 10 -5 0
-13 -4 -16 -10z"/>
<path d="M1780 2716 c0 -9 7 -19 15 -23 25 -9 27 2 5 22 -18 17 -20 17 -20 1z"/>
<path d="M1490 2666 c0 -2 8 -10 18 -17 15 -13 16 -12 3 4 -13 16 -21 21 -21
13z"/>
<path d="M1857 2644 c-11 -12 14 -34 37 -33 15 0 17 2 6 6 -8 4 -20 13 -25 20
-6 8 -14 11 -18 7z"/>
<path d="M1606 2601 c-6 -10 24 -25 32 -16 3 3 -1 5 -9 5 -11 0 -11 2 1 10 13
8 13 10 -2 10 -9 0 -19 -4 -22 -9z"/>
<path d="M1650 2570 c0 -6 7 -10 15 -10 8 0 15 2 15 4 0 2 -7 6 -15 10 -8 3
-15 1 -15 -4z"/>
<path d="M1940 2556 c0 -9 5 -16 10 -16 6 0 10 4 10 9 0 6 -4 13 -10 16 -5 3
-10 -1 -10 -9z"/>
<path d="M1830 2510 c-18 -12 -2 -12 25 0 13 6 15 9 5 9 -8 0 -22 -4 -30 -9z"/>
<path d="M2020 2480 c0 -5 5 -10 11 -10 5 0 7 5 4 10 -3 6 -8 10 -11 10 -2 0
-4 -4 -4 -10z"/>
<path d="M2028 2443 c6 -2 18 -2 25 0 6 3 1 5 -13 5 -14 0 -19 -2 -12 -5z"/>
<path d="M1433 2143 c-7 -3 -10 -10 -7 -17 5 -14 -22 -30 -36 -21 -4 3 -6 -4
-3 -15 3 -11 0 -20 -6 -20 -6 0 -11 -10 -10 -22 0 -15 2 -18 6 -8 9 23 55 70
64 64 5 -3 6 2 2 12 -5 13 -2 15 17 9 15 -5 20 -4 16 3 -4 7 8 12 31 15 30 3
28 4 -12 4 -28 0 -55 -2 -62 -4z"/>
<path d="M1355 2079 c-4 -6 -5 -12 -2 -15 2 -3 7 2 10 11 7 17 1 20 -8 4z"/>
<path d="M1332 2020 c0 -19 2 -27 5 -17 2 9 2 25 0 35 -3 9 -5 1 -5 -18z"/>
<path d="M1324 1968 c-4 -5 -3 -12 0 -15 3 -4 6 0 6 8 0 11 2 12 9 1 7 -11 9
-11 14 0 6 16 -20 21 -29 6z"/>
<path d="M1361 1953 c-1 -6 -4 -20 -7 -30 -5 -15 -4 -15 5 -3 9 12 11 13 11 1
0 -8 2 -12 5 -9 3 3 1 16 -4 29 -5 13 -10 19 -10 12z"/>
<path d="M1355 1890 c-3 -5 -1 -10 4 -10 6 0 11 5 11 10 0 6 -2 10 -4 10 -3 0
-8 -4 -11 -10z"/>
<path d="M1385 1869 c-12 -18 26 -49 59 -48 l31 2 -30 4 c-29 5 -57 31 -49 45
3 5 3 8 0 8 -3 0 -8 -5 -11 -11z"/>
<path d="M1430 1850 c8 -5 20 -10 25 -10 6 0 3 5 -5 10 -8 5 -19 10 -25 10 -5
0 -3 -5 5 -10z"/>
<path d="M1570 1844 c-16 -8 -19 -14 -9 -14 8 0 24 7 35 15 24 18 7 18 -26 -1z"/>
<path d="M1493 1833 c9 -2 23 -2 30 0 6 3 -1 5 -18 5 -16 0 -22 -2 -12 -5z"/>
<path d="M1825 2150 c-13 -6 -15 -9 -5 -9 8 0 22 4 30 9 18 12 2 12 -25 0z"/>
<path d="M1880 2146 c0 -2 11 -6 25 -8 13 -3 22 -1 19 3 -5 9 -44 13 -44 5z"/>
<path d="M1711 2081 c-27 -38 -27 -50 0 -20 14 17 19 19 15 7 -3 -11 0 -15 7
-12 17 6 40 44 27 44 -5 0 -10 -4 -10 -10 0 -5 -5 -10 -11 -10 -6 0 -9 7 -5
15 9 23 -1 18 -23 -14z"/>
<path d="M1803 2095 c-64 -27 -95 -117 -61 -178 15 -27 18 -69 3 -64 -5 2 -10
11 -10 20 0 8 -4 19 -8 23 -4 4 -7 -4 -7 -18 0 -16 9 -32 24 -41 23 -15 23
-15 20 14 l-4 29 30 -15 c63 -33 132 -13 167 48 15 26 17 42 11 82 -5 28 -8
58 -9 67 0 10 -6 15 -15 11 -8 -3 -14 0 -14 6 0 6 5 11 11 11 5 0 7 5 3 11 -5
8 -8 8 -13 0 -5 -8 -22 -8 -53 -3 -32 6 -55 5 -75 -3z"/>
<path d="M1960 2103 c0 -6 11 -21 25 -31 15 -12 21 -23 15 -27 -5 -3 -10 -16
-9 -28 1 -19 2 -18 14 8 11 26 10 63 -2 51 -3 -3 -14 5 -24 17 -10 12 -18 17
-19 10z"/>
<path d="M1690 2020 c-8 -5 -12 -11 -9 -14 2 -3 11 -1 19 4 8 5 12 11 9 14 -2
3 -11 1 -19 -4z"/>
<path d="M2011 1985 c-1 -11 -4 -31 -6 -45 l-6 -25 11 25 c6 13 9 33 7 45 -4
19 -4 19 -6 0z"/>
<path d="M1701 1974 c0 -11 3 -14 6 -6 3 7 2 16 -1 19 -3 4 -6 -2 -5 -13z"/>
<path d="M2001 1887 c-13 -21 -12 -21 5 -5 10 10 16 20 13 22 -3 3 -11 -5 -18
-17z"/>
<path d="M1867 1829 c7 -7 15 -10 18 -7 3 3 -2 9 -12 12 -14 6 -15 5 -6 -5z"/>
<path d="M1820 1826 c0 -2 7 -7 16 -10 8 -3 12 -2 9 4 -6 10 -25 14 -25 6z"/>
<path d="M2120 2128 c0 -19 2 -20 10 -8 13 19 13 30 0 30 -5 0 -10 -10 -10
-22z"/>
<path d="M2217 1980 c-3 -11 -1 -20 4 -20 5 0 9 9 9 20 0 11 -2 20 -4 20 -2 0
-6 -9 -9 -20z"/>
<path d="M2122 1905 c0 -16 2 -22 5 -12 2 9 2 23 0 30 -3 6 -5 -1 -5 -18z"/>
<path d="M2120 1815 c0 -8 4 -15 10 -15 5 0 7 7 4 15 -4 8 -8 15 -10 15 -2 0
-4 -7 -4 -15z"/>
<path d="M2460 2139 c0 -5 5 -7 10 -4 6 3 10 8 10 11 0 2 -4 4 -10 4 -5 0 -10
-5 -10 -11z"/>
<path d="M2640 2135 c0 -8 2 -15 4 -15 2 0 6 7 10 15 3 8 1 15 -4 15 -6 0 -10
-7 -10 -15z"/>
<path d="M2670 2130 c-9 -6 -10 -10 -3 -10 6 0 15 5 18 10 8 12 4 12 -15 0z"/>
<path d="M2540 1990 c0 -5 5 -10 10 -10 6 0 10 5 10 10 0 6 -4 10 -10 10 -5 0
-10 -4 -10 -10z"/>
<path d="M2490 1970 c0 -5 4 -10 9 -10 6 0 13 5 16 10 3 6 -1 10 -9 10 -9 0
-16 -4 -16 -10z"/>
<path d="M2468 1803 c7 -3 16 -2 19 1 4 3 -2 6 -13 5 -11 0 -14 -3 -6 -6z"/>
<path d="M2800 1949 c0 -5 5 -7 10 -4 6 3 10 8 10 11 0 2 -4 4 -10 4 -5 0 -10
-5 -10 -11z"/>
<path d="M2858 1823 c7 -3 16 -2 19 1 4 3 -2 6 -13 5 -11 0 -14 -3 -6 -6z"/>
<path d="M3312 1980 c0 -14 2 -19 5 -12 2 6 2 18 0 25 -3 6 -5 1 -5 -13z"/>
<path d="M3366 1815 c-3 -8 -1 -15 4 -15 6 0 10 7 10 15 0 8 -2 15 -4 15 -2 0
-6 -7 -10 -15z"/>
</g>
</svg>
